<?xml version="1.0" encoding="utf-8"?>
<!-- Generator: Adobe Illustrator 25.1.0, SVG Export Plug-In . SVG Version: 6.00 Build 0)  -->
<svg version="1.1" id="Layer_1" xmlns="http://www.w3.org/2000/svg" xmlns:xlink="http://www.w3.org/1999/xlink" x="0px" y="0px"
	 viewBox="0 0 24 24" style="enable-background:new 0 0 24 24;" xml:space="preserve">
<style type="text/css">
	.st0{fill:none;stroke:#000000;stroke-width:2;stroke-linecap:round;stroke-linejoin:round;}
</style>
<g>
	<line class="st0" x1="19.5" y1="13" x2="11" y2="4.5"/>
	<line class="st0" x1="22.5" y1="10" x2="14" y2="1.5"/>
</g>
<line class="st0" x1="-13.9" y1="16.8" x2="-13.9" y2="11.2"/>
<line class="st0" x1="7.7" y1="-5.8" x2="13.3" y2="-5.8"/>
<line class="st0" x1="-22.9" y1="-9.3" x2="-9.9" y2="-9.3"/>
<line class="st0" x1="-22.9" y1="-5.3" x2="-13.9" y2="-5.3"/>
<line class="st0" x1="-22.9" y1="-1.3" x2="-13.9" y2="-1.3"/>
<line class="st0" x1="-8.9" y1="-5.3" x2="-8.9" y2="6.7"/>
<line class="st0" x1="-8.9" y1="6.7" x2="-12.9" y2="2.7"/>
<line class="st0" x1="-8.9" y1="6.7" x2="-4.9" y2="2.7"/>
<path class="st0" d="M-2,7.7c0.6,0.6,0.6,1.5,0,2.1"/>
<path class="st0" d="M3,6.8c0.6-0.6,1.5-0.6,2.1,0"/>
<path class="st0" d="M3,5.8C2.4,5.2,2.4,4.3,3,3.7"/>
<path class="st0" d="M-1.6,14.1c-0.6,0.6-1.5,0.6-2.1,0"/>
<path class="st0" d="M16.7,10.3l-8.5,8.5c0,0,0,0,0,0v0c-0.8,0.8-2.2,0.8-3,0s-3.1,0.7,0-3s0,0,0,0l8.5-8.5"/>
<line class="st0" x1="40" y1="10.9" x2="31.5" y2="19.4"/>
<line class="st0" x1="37" y1="7.9" x2="28.5" y2="16.4"/>
<circle class="st0" cx="30" cy="17.9" r="2.1"/>
</svg>
